<svg xmlns="http://www.w3.org/2000/svg" xml:space="preserve" viewBox="0 0 52 52" id="employee-setting">
  <g fill="none" stroke="currentColor"
 stroke-linecap="round" stroke-linejoin="round" stroke-miterlimit="10" stroke-width="2">
    <path d="M30.891 28.129v-1.53c0-3-2.43-5.43-5.43-5.43H7.431c-3 0-5.43 2.43-5.43 5.43v14.57h26.77"></path>
    <circle cx="16.445" cy="8.725" r="6.725"></circle>
  </g>
  <g fill="none" stroke="currentColor"
 stroke-linecap="round" stroke-linejoin="round" stroke-miterlimit="10" stroke-width="2">
    <path d="M46.508 40.413a9.105 9.105 0 0 1-.583 1.4l1.454 3.484-2.083 2.083-3.483-1.454a9.225 9.225 0 0 1-1.409.59L38.973 50h-2.946l-1.431-3.483a8.917 8.917 0 0 1-1.409-.591l-3.483 1.454-2.083-2.083 1.454-3.483a9.106 9.106 0 0 1-.583-1.401l-3.49-1.439v-2.938l3.49-1.44c.16-.484.349-.953.583-1.4l-1.454-3.491 2.083-2.075 3.483 1.454a8.916 8.916 0 0 1 1.409-.59l1.431-3.492 2.946.008 1.431 3.483c.485.16.962.356 1.409.59l3.483-1.453 2.083 2.075-1.454 3.49c.235.448.424.917.583 1.402l3.491 1.439v2.938l-3.491 1.439z"></path>
    <circle cx="37.5" cy="37.503" r="5.492"></circle>
  </g>
</svg>
