<svg xmlns="http://www.w3.org/2000/svg" viewBox="0 0 50 50" id="user-management">
  <rect width="48" height="48" x="1" y="1" fill="none" stroke="#231f20" stroke-miterlimit="10" stroke-width="2" rx="6.77"></rect>
  <path fill="none" stroke="#231f20" stroke-miterlimit="10" stroke-width="2" d="M29.04 32.21a8.32 8.32 0 0 1-8.32 8.32h-3.27a8.29 8.29 0 0 1-5.88-2.43 8.32 8.32 0 0 1 5.89-14.2h3.27a8.33 8.33 0 0 1 8.32 8.32Z"></path>
  <circle cx="19.09" cy="14.15" r="5.33" fill="none" stroke="#231f20" stroke-miterlimit="10" stroke-width="2"></circle>
  <path fill="none" stroke="#231f20" stroke-miterlimit="10" stroke-width="2" d="M40.44 18.37h-.94a.42.42 0 0 1-.41-.32 5.35 5.35 0 0 0-.54-1.28.44.44 0 0 1 .07-.52l.67-.67a.41.41 0 0 0 0-.59l-1-1a.42.42 0 0 0-.6 0l-.67.67a.42.42 0 0 1-.51.06 5.23 5.23 0 0 0-1.29-.53.43.43 0 0 1-.31-.41v-1a.42.42 0 0 0-.42-.42H33.1a.42.42 0 0 0-.42.42v1a.43.43 0 0 1-.32.41 5.32 5.32 0 0 0-1.28.53.44.44 0 0 1-.52-.06l-.67-.67a.41.41 0 0 0-.59 0l-1 1a.41.41 0 0 0 0 .59l.67.67a.44.44 0 0 1 .06.52 5.32 5.32 0 0 0-.53 1.28.43.43 0 0 1-.41.32h-.95a.42.42 0 0 0-.42.42v1.42a.42.42 0 0 0 .42.42h.95a.43.43 0 0 1 .41.31 5.23 5.23 0 0 0 .53 1.29.42.42 0 0 1-.06.51l-.67.67a.43.43 0 0 0 0 .6l1 1a.41.41 0 0 0 .59 0l.67-.67a.44.44 0 0 1 .52-.07 5.79 5.79 0 0 0 1.28.54.42.42 0 0 1 .32.41v.94a.42.42 0 0 0 .42.43h1.39a.42.42 0 0 0 .42-.43v-.95a.42.42 0 0 1 .31-.41 5.67 5.67 0 0 0 1.29-.54.42.42 0 0 1 .51.07l.67.67a.42.42 0 0 0 .6 0l1-1a.42.42 0 0 0 0-.6l-.67-.67a.42.42 0 0 1-.07-.51 5.25 5.25 0 0 0 .54-1.29.42.42 0 0 1 .41-.31h.94a.42.42 0 0 0 .43-.42v-1.39a.42.42 0 0 0-.43-.44Zm-6.63 3.19a2.08 2.08 0 1 1 2.08-2.08 2.08 2.08 0 0 1-2.08 2.08Z"></path>
</svg>
